# This file uses centimeters as units for non-parametric coordinates.

mtllib Green.mtl
g default




v 0.043 0 -0.026
v -0.014 0 -0.026
v -0.043 0 0.026
v 0.014 0 0.026
v 0.014 0.002 0.026
v 0.043 0.002 -0.026
v -0.014 0.002 -0.026
v -0.043 0.002 0.026
vn 0.000000 1.000000 0.000000
vn 0.000000 1.000000 0.000000
vn 0.000000 1.000000 0.000000
vn 0.000000 1.000000 0.000000
vn 0.000000 1.000000 0.000000
vn 0.000000 1.000000 0.000000
vn 0.000000 -1.000000 0.000000
vn 0.000000 -1.000000 0.000000
vn 0.000000 -1.000000 0.000000
vn 0.000000 -1.000000 0.000000
vn 0.000000 -1.000000 0.000000
vn 0.000000 -1.000000 0.000000
vn 0.975555 0.000000 0.219757
vn 0.975555 0.000000 0.219757
vn 0.975555 0.000000 0.219757
vn 0.975555 0.000000 0.219757
vn 0.975555 0.000000 0.219757
vn 0.975555 0.000000 0.219757
vn 0.000000 0.000000 -1.000000
vn 0.000000 0.000000 -1.000000
vn 0.000000 0.000000 -1.000000
vn 0.000000 0.000000 -1.000000
vn 0.000000 0.000000 -1.000000
vn 0.000000 0.000000 -1.000000
vn -0.975555 0.000000 -0.219757
vn -0.975555 0.000000 -0.219757
vn -0.975555 0.000000 -0.219757
vn -0.975555 0.000000 -0.219757
vn -0.975555 0.000000 -0.219757
vn -0.975555 0.000000 -0.219757
vn 0.000000 0.000000 1.000000
vn 0.000000 0.000000 1.000000
vn 0.000000 0.000000 1.000000
vn 0.000000 0.000000 1.000000
vn 0.000000 0.000000 1.000000
vn 0.000000 0.000000 1.000000
s off
g parallel_DGreen_5cm Shape13
usemtl polySurface067SG
f 6//1 7//2 5//3
f 5//4 7//5 8//6
f 3//7 2//8 4//9
f 4//10 2//11 1//12
f 4//13 1//14 5//15
f 5//16 1//17 6//18
f 1//19 2//20 6//21
f 6//22 2//23 7//24
f 2//25 3//26 7//27
f 7//28 3//29 8//30
f 3//31 4//32 8//33
f 8//34 4//35 5//36
